<svg width="640" height="160" viewBox="0 0 640 160" fill="none" xmlns="http://www.w3.org/2000/svg">
<g clip-path="url(#clip0)">
<path d="M120.032 114.447C121.762 116.323 124.75 116.486 126.337 114.491C129.437 110.593 131.399 105.9 131.957 100.923C132.687 94.4159 130.968 87.8718 127.125 82.5251C123.282 77.1784 117.581 73.399 111.098 71.9C104.614 70.4011 97.7961 71.2863 91.9309 74.3886C86.0657 77.4909 81.5588 82.5958 79.2606 88.7399C76.9623 94.8839 77.0318 101.642 79.4558 107.739C81.8798 113.837 86.4908 118.851 92.4185 121.836C96.9533 124.12 102.019 125.095 107.037 124.699C109.605 124.496 111.113 121.956 110.473 119.504C109.832 117.052 107.272 115.639 104.696 115.617C101.926 115.593 99.1762 114.938 96.6727 113.677C92.7729 111.713 89.7393 108.414 88.1446 104.403C86.5498 100.392 86.5041 95.9453 88.0161 91.9032C89.5281 87.8611 92.4932 84.5026 96.3519 82.4616C100.211 80.4206 104.696 79.8383 108.961 80.8244C113.227 81.8105 116.978 84.297 119.506 87.8145C122.034 91.3321 123.165 95.6375 122.685 99.9181C122.377 102.666 121.418 105.282 119.913 107.568C118.513 109.693 118.302 112.571 120.032 114.447Z" fill="#5528FF"/>
<path d="M122.392 32.7937C122.392 30.0836 124.627 27.8867 127.384 27.8867C130.142 27.8867 132.377 30.0836 132.377 32.7937V94.1306C132.377 96.8407 130.142 99.0376 127.384 99.0376C124.627 99.0376 122.392 96.8407 122.392 94.1306V32.7937Z" fill="#5528FF"/>
<path d="M134.874 59.7817C134.874 57.0717 137.109 54.8748 139.867 54.8748C142.624 54.8748 144.859 57.0717 144.859 59.7817V111.305C144.859 114.015 142.624 116.212 139.867 116.212C137.109 116.212 134.874 114.015 134.874 111.305V59.7817Z" fill="#5528FF"/>
<path d="M168.56 118C167.92 118 167.376 117.808 166.928 117.424C166.544 116.976 166.352 116.432 166.352 115.792V53.104C166.352 52.4 166.544 51.856 166.928 51.472C167.376 51.024 167.92 50.8 168.56 50.8H207.728C208.432 50.8 208.976 51.024 209.36 51.472C209.808 51.856 210.032 52.4 210.032 53.104V56.944C210.032 57.584 209.808 58.128 209.36 58.576C208.976 58.96 208.432 59.152 207.728 59.152H175.664V81.52H205.808C206.512 81.52 207.056 81.744 207.44 82.192C207.888 82.576 208.112 83.12 208.112 83.824V87.664C208.112 88.304 207.888 88.848 207.44 89.296C206.992 89.68 206.448 89.872 205.808 89.872H175.664V115.792C175.664 116.432 175.44 116.976 174.992 117.424C174.544 117.808 174 118 173.36 118H168.56ZM240.103 118.96C233.511 118.96 228.231 116.944 224.263 112.912C220.359 108.816 218.215 103.248 217.831 96.208L217.735 92.944L217.831 89.776C218.279 82.864 220.455 77.36 224.359 73.264C228.327 69.168 233.543 67.12 240.007 67.12C247.111 67.12 252.615 69.392 256.519 73.936C260.423 78.416 262.375 84.496 262.375 92.176V93.808C262.375 94.448 262.151 94.992 261.703 95.44C261.319 95.824 260.807 96.016 260.167 96.016H226.951V96.88C227.143 101.04 228.391 104.592 230.695 107.536C233.063 110.416 236.167 111.856 240.007 111.856C242.951 111.856 245.351 111.28 247.207 110.128C249.127 108.912 250.535 107.664 251.431 106.384C252.007 105.616 252.423 105.168 252.679 105.04C252.999 104.848 253.543 104.752 254.311 104.752H259.015C259.591 104.752 260.071 104.912 260.455 105.232C260.839 105.552 261.031 106 261.031 106.576C261.031 107.984 260.135 109.68 258.343 111.664C256.615 113.648 254.151 115.376 250.951 116.848C247.815 118.256 244.199 118.96 240.103 118.96ZM253.255 89.392V89.104C253.255 84.688 252.039 81.104 249.607 78.352C247.239 75.536 244.039 74.128 240.007 74.128C235.975 74.128 232.775 75.536 230.407 78.352C228.103 81.104 226.951 84.688 226.951 89.104V89.392H253.255ZM289.543 118C287.879 118 286.695 117.2 285.991 115.6L268.23 71.056L268.039 70.096C268.039 69.52 268.231 69.04 268.615 68.656C268.999 68.272 269.479 68.08 270.055 68.08H274.663C275.751 68.08 276.551 68.624 277.062 69.712L291.655 107.536L306.247 69.712C306.823 68.624 307.591 68.08 308.551 68.08H313.255C313.767 68.08 314.215 68.272 314.599 68.656C315.047 69.04 315.271 69.52 315.271 70.096L315.079 71.056L297.223 115.6C296.519 117.2 295.335 118 293.671 118H289.543ZM343.51 118.96C336.918 118.96 331.638 116.944 327.67 112.912C323.766 108.816 321.622 103.248 321.238 96.208L321.142 92.944L321.238 89.776C321.686 82.864 323.862 77.36 327.766 73.264C331.734 69.168 336.95 67.12 343.414 67.12C350.518 67.12 356.022 69.392 359.926 73.936C363.83 78.416 365.781 84.496 365.781 92.176V93.808C365.781 94.448 365.558 94.992 365.11 95.44C364.726 95.824 364.214 96.016 363.574 96.016H330.358V96.88C330.55 101.04 331.798 104.592 334.102 107.536C336.47 110.416 339.574 111.856 343.414 111.856C346.358 111.856 348.758 111.28 350.614 110.128C352.534 108.912 353.942 107.664 354.838 106.384C355.414 105.616 355.83 105.168 356.086 105.04C356.406 104.848 356.95 104.752 357.718 104.752H362.422C362.998 104.752 363.478 104.912 363.862 105.232C364.246 105.552 364.438 106 364.438 106.576C364.438 107.984 363.542 109.68 361.75 111.664C360.022 113.648 357.558 115.376 354.358 116.848C351.222 118.256 347.606 118.96 343.51 118.96ZM356.662 89.392V89.104C356.662 84.688 355.446 81.104 353.014 78.352C350.646 75.536 347.446 74.128 343.414 74.128C339.382 74.128 336.182 75.536 333.814 78.352C331.51 81.104 330.358 84.688 330.358 89.104V89.392H356.662ZM379.468 118C378.828 118 378.284 117.808 377.836 117.424C377.452 116.976 377.26 116.432 377.26 115.792V70.384C377.26 69.744 377.452 69.2 377.836 68.752C378.284 68.304 378.828 68.08 379.468 68.08H383.884C384.524 68.08 385.068 68.304 385.516 68.752C385.964 69.2 386.188 69.744 386.188 70.384V74.608C388.812 70.256 393.292 68.08 399.628 68.08H403.372C404.012 68.08 404.524 68.304 404.908 68.752C405.356 69.136 405.58 69.648 405.58 70.288V74.224C405.58 74.864 405.356 75.376 404.908 75.76C404.524 76.144 404.012 76.336 403.372 76.336H397.612C394.156 76.336 391.436 77.36 389.452 79.408C387.468 81.392 386.476 84.112 386.476 87.568V115.792C386.476 116.432 386.252 116.976 385.804 117.424C385.356 117.808 384.812 118 384.172 118H379.468ZM411.425 118C410.913 118 410.433 117.808 409.985 117.424C409.601 117.04 409.409 116.56 409.409 115.984C409.409 115.408 409.633 114.832 410.081 114.256L426.785 92.464L411.137 71.824C410.689 71.312 410.465 70.736 410.465 70.096C410.465 69.52 410.657 69.04 411.041 68.656C411.425 68.272 411.905 68.08 412.481 68.08H417.377C418.337 68.08 419.169 68.592 419.873 69.616L432.641 86.224L445.409 69.712C445.793 69.2 446.145 68.816 446.465 68.56C446.849 68.24 447.329 68.08 447.905 68.08H452.609C453.185 68.08 453.665 68.272 454.049 68.656C454.433 69.04 454.625 69.52 454.625 70.096C454.625 70.736 454.401 71.312 453.953 71.824L438.113 92.656L454.817 114.256C455.265 114.832 455.489 115.408 455.489 115.984C455.489 116.56 455.297 117.04 454.913 117.424C454.529 117.808 454.049 118 453.473 118H448.385C447.425 118 446.593 117.52 445.889 116.56L432.449 98.992L418.817 116.56C418.433 117.008 418.049 117.36 417.665 117.616C417.345 117.872 416.897 118 416.321 118H411.425ZM467.015 118C466.375 118 465.831 117.808 465.383 117.424C464.999 116.976 464.807 116.432 464.807 115.792V108.88C464.807 108.24 464.999 107.728 465.383 107.344C465.831 106.896 466.375 106.672 467.015 106.672H473.927C474.567 106.672 475.111 106.896 475.559 107.344C476.007 107.728 476.231 108.24 476.231 108.88V115.792C476.231 116.432 476.007 116.976 475.559 117.424C475.111 117.808 474.567 118 473.927 118H467.015ZM491.107 58.768C490.467 58.768 489.923 58.576 489.475 58.192C489.091 57.744 488.898 57.2 488.898 56.56V51.376C488.898 50.736 489.091 50.192 489.475 49.744C489.923 49.296 490.467 49.072 491.107 49.072H497.155C497.795 49.072 498.339 49.296 498.787 49.744C499.235 50.192 499.459 50.736 499.459 51.376V56.56C499.459 57.2 499.235 57.744 498.787 58.192C498.339 58.576 497.795 58.768 497.155 58.768H491.107ZM491.875 118C491.235 118 490.691 117.808 490.243 117.424C489.859 116.976 489.667 116.432 489.667 115.792V70.288C489.667 69.648 489.859 69.136 490.243 68.752C490.691 68.304 491.235 68.08 491.875 68.08H496.483C497.123 68.08 497.635 68.304 498.019 68.752C498.467 69.136 498.691 69.648 498.691 70.288V115.792C498.691 116.432 498.467 116.976 498.019 117.424C497.635 117.808 497.123 118 496.483 118H491.875ZM515.125 118C514.485 118 513.941 117.808 513.493 117.424C513.109 116.976 512.917 116.432 512.917 115.792V70.288C512.917 69.648 513.109 69.136 513.493 68.752C513.941 68.304 514.485 68.08 515.125 68.08H519.637C520.277 68.08 520.789 68.304 521.173 68.752C521.621 69.136 521.845 69.648 521.845 70.288V74.512C523.701 72.144 525.877 70.32 528.373 69.04C530.933 67.76 534.101 67.12 537.877 67.12C544.021 67.12 548.789 69.104 552.181 73.072C555.637 76.976 557.365 82.192 557.365 88.72V115.792C557.365 116.432 557.141 116.976 556.693 117.424C556.309 117.808 555.797 118 555.156 118H550.357C549.717 118 549.173 117.808 548.725 117.424C548.341 116.976 548.149 116.432 548.149 115.792V89.2C548.149 84.656 547.029 81.136 544.789 78.64C542.613 76.144 539.445 74.896 535.285 74.896C531.253 74.896 528.053 76.176 525.685 78.736C523.317 81.232 522.133 84.72 522.133 89.2V115.792C522.133 116.432 521.909 116.976 521.461 117.424C521.077 117.808 520.565 118 519.924 118H515.125Z" fill="#5528FF"/>
</g>
<defs>
<clipPath id="clip0">
<rect width="640" height="160" fill="white"/>
</clipPath>
</defs>
</svg>
